<svg width="20" height="18" viewBox="0 0 20 18" fill="none" xmlns="http://www.w3.org/2000/svg">
    <path d="M6.41256 12.742L16.9955 1.04519C17.3244 0.681729 17.7429 0.5 18.2511 0.5C18.7593 0.5 19.1779 0.681729 19.5067 1.04519C19.8356 1.40865 20 1.87123 20 2.43294C20 2.99465 19.8356 3.45724 19.5067 3.8207L7.66816 16.9052C7.30942 17.3017 6.89088 17.5 6.41256 17.5C5.93423 17.5 5.51569 17.3017 5.15695 16.9052L0.493273 11.7507C0.164424 11.3873 0 10.9247 0 10.363C0 9.80126 0.164424 9.33868 0.493273 8.97522C0.822122 8.61176 1.24066 8.43003 1.74888 8.43003C2.2571 8.43003 2.67564 8.61176 3.00448 8.97522L6.41256 12.742Z" fill="white"/>
</svg>
