<svg width="10" height="17" viewBox="0 0 10 17" fill="none" xmlns="http://www.w3.org/2000/svg">
    <path d="M9.77775 8.88889C9.77775 9.08022 9.74043 9.26581 9.66579 9.44566C9.59116 9.62551 9.49164 9.77475 9.36724 9.89337L2.50042 16.4943C2.22674 16.7573 1.87842 16.8889 1.45547 16.8889C1.03251 16.8889 0.684193 16.7573 0.410516 16.4943C0.136838 16.2312 0 15.8964 0 15.4898C0 15.0832 0.136838 14.7484 0.410516 14.4853L6.23239 8.88889L0.410516 3.29247C0.136838 3.02939 0 2.69457 0 2.28799C0 1.88141 0.136838 1.54659 0.410516 1.28351C0.684193 1.02043 1.03251 0.888885 1.45547 0.888885C1.87842 0.888885 2.22674 1.02043 2.50042 1.28351L9.36724 7.8844C9.51652 8.0279 9.6225 8.18336 9.6852 8.35077C9.7479 8.51818 9.77875 8.69756 9.77775 8.88889Z" fill="white"/>
</svg>
