<svg width="16" height="10" viewBox="0 0 16 10" fill="none" xmlns="http://www.w3.org/2000/svg">
    <path d="M8 9.77775C7.80867 9.77775 7.62308 9.74043 7.44323 9.66579C7.26338 9.59116 7.11414 9.49164 6.99552 9.36724L0.394618 2.50042C0.131539 2.22674 0 1.87842 0 1.45547C0 1.03251 0.131539 0.684193 0.394618 0.410516C0.657697 0.136838 0.992526 0 1.3991 0C1.80568 0 2.14051 0.136838 2.40359 0.410516L8 6.23239L13.5964 0.410516C13.8595 0.136838 14.1943 0 14.6009 0C15.0075 0 15.3423 0.136838 15.6054 0.410516C15.8685 0.684193 16 1.03251 16 1.45547C16 1.87842 15.8685 2.22674 15.6054 2.50042L9.00448 9.36724C8.86099 9.51652 8.70553 9.6225 8.53812 9.6852C8.3707 9.7479 8.19133 9.77875 8 9.77775Z" fill="white"/>
</svg>
