<svg width="16" height="10" viewBox="0 0 16 10" fill="none" xmlns="http://www.w3.org/2000/svg">
    <path d="M8 1.62125e-05C8.19133 1.62125e-05 8.37692 0.0373373 8.55677 0.111977C8.73662 0.186616 8.88586 0.286135 9.00448 0.410534L15.6054 7.27735C15.8685 7.55103 16 7.89935 16 8.3223C16 8.74526 15.8685 9.09358 15.6054 9.36726C15.3423 9.64093 15.0075 9.77777 14.6009 9.77777C14.1943 9.77777 13.8595 9.64093 13.5964 9.36726L8 3.54539L2.40359 9.36726C2.14051 9.64093 1.80568 9.77777 1.3991 9.77777C0.992526 9.77777 0.6577 9.64093 0.394621 9.36726C0.131541 9.09358 0 8.74526 0 8.3223C0 7.89935 0.131541 7.55103 0.394621 7.27735L6.99552 0.410534C7.13901 0.261255 7.29447 0.155267 7.46188 0.0925694C7.6293 0.0298729 7.80867 -0.00097847 8 1.62125e-05Z" fill="white"/>
</svg>
