<svg width="10" height="10" viewBox="0 0 10 10" fill="none" xmlns="http://www.w3.org/2000/svg">
    <path d="M9.85352 9.14098C9.94736 9.23605 10 9.36445 10 9.49825C10 9.63206 9.94736 9.76045 9.85352 9.85552C9.758 9.94819 9.63034 10 9.49747 10C9.3646 10 9.23694 9.94819 9.14142 9.85552L5 5.69365L0.85858 9.85552C0.763063 9.94819 0.635396 10 0.50253 10C0.369664 10 0.241997 9.94819 0.14648 9.85552C0.0526422 9.76045 0 9.63206 0 9.49825C0 9.36445 0.0526422 9.23605 0.14648 9.14098L4.29415 4.98539L0.14648 0.829788C0.0667935 0.732363 0.0260705 0.608678 0.032232 0.482793C0.0383936 0.356908 0.0909992 0.237823 0.179817 0.148702C0.268634 0.05958 0.387313 0.00679433 0.512768 0.000611668C0.638224 -0.005571 0.761487 0.0352914 0.85858 0.115251L5 4.27712L9.14142 0.115251C9.23851 0.0352914 9.36178 -0.005571 9.48723 0.000611668C9.61269 0.00679433 9.73137 0.05958 9.82018 0.148702C9.909 0.237823 9.96161 0.356908 9.96777 0.482793C9.97393 0.608678 9.93321 0.732363 9.85352 0.829788L5.70585 4.98539L9.85352 9.14098Z" fill="#E2E4E9"/>
</svg>
