<svg xmlns="http://www.w3.org/2000/svg" width="180" height="80" viewBox="0 0 180 80" fill="none">
<path d="M104.644 31.7582L94.48 77.2538C94.2838 78.1323 94.8472 78.9916 95.6194 78.9916H175.898C176.674 78.9916 177.238 78.124 177.035 77.2429L166.308 30.7567C166.268 30.5826 166.258 30.39 166.276 30.2108C168.472 8.92694 159.98 16.7228 155.117 23.736C154.89 24.0644 154.551 24.2578 154.19 24.2578H115.892C115.518 24.2578 115.156 24.0312 114.93 23.6801C105.451 8.93919 104.135 22.4028 104.68 31.3023C104.689 31.4564 104.677 31.6088 104.644 31.7582Z" fill="white"/>
<path d="M94.0919 76.2769C95.2699 70.7343 101.455 43.488 104.989 30.2087C103.124 24.2041 103.811 18.57 107.05 17.0444C110.29 15.5188 113.922 20.2727 115.591 23.2749H135.323" stroke="black" stroke-width="2" stroke-linecap="round" stroke-linejoin="round"/>
<path d="M176.555 76.2769C175.377 70.7343 169.192 43.488 165.658 30.2087C167.523 24.2041 166.836 18.57 163.596 17.0444C160.357 15.5188 156.724 20.2727 155.056 23.2749H135.323" stroke="black" stroke-width="2" stroke-linecap="round" stroke-linejoin="round"/>
<path d="M130.022 56.1279L136.091 62.4372V72.4271C135.139 73.3034 132.914 74.425 131.629 71.9013" stroke="black" stroke-width="2" stroke-linecap="round" stroke-linejoin="round"/>
<path d="M141.981 56.1279L135.912 62.4372V72.4271C136.864 73.3034 139.089 74.425 140.375 71.9013" stroke="black" stroke-width="2" stroke-linecap="round" stroke-linejoin="round"/>
<path d="M112.925 54.9161L117.079 55.2609" stroke="black" stroke-width="2" stroke-linecap="round" stroke-linejoin="round"/>
<path d="M158.916 54.9161L154.761 55.2609" stroke="black" stroke-width="2" stroke-linecap="round" stroke-linejoin="round"/>
<path d="M17.1847 22.0887L4.68123 77.3864C4.43979 78.4541 5.13287 79.4986 6.08288 79.4986H104.842C105.797 79.4986 106.49 78.4441 106.24 77.3732L93.0435 20.8714C92.9942 20.6598 92.9826 20.4257 93.0051 20.2079C95.7057 -5.66158 85.2597 3.81392 79.2773 12.3381C78.9968 12.7373 78.5802 12.9723 78.1367 12.9723H31.022C30.5615 12.9723 30.1165 12.6969 29.8387 12.2701C18.1778 -5.64669 16.5584 10.7176 17.2288 21.5346C17.2404 21.7219 17.2257 21.9071 17.1847 22.0887Z" fill="white"/>
<path d="M4.20361 76.1991C5.65284 69.4622 13.2613 36.3457 17.609 20.2054C15.3143 12.9071 16.1597 6.05911 20.1451 4.20481C24.1305 2.35052 28.599 8.12871 30.652 11.7777H54.9266" stroke="black" stroke-width="2" stroke-linecap="round" stroke-linejoin="round"/>
<path d="M105.65 76.1991C104.2 69.4622 96.5919 36.3457 92.2442 20.2054C94.5391 12.9071 93.6935 6.05911 89.7081 4.20481C85.7227 2.35052 81.254 8.12871 79.2012 11.7777H54.9266" stroke="black" stroke-width="2" stroke-linecap="round" stroke-linejoin="round"/>
<path d="M48.4051 51.7089L55.8708 59.3776V71.5198C54.6997 72.5849 51.9623 73.9482 50.3813 70.8808" stroke="black" stroke-width="2" stroke-linecap="round" stroke-linejoin="round"/>
<path d="M63.1167 51.7089L55.651 59.3776V71.5198C56.8221 72.5849 59.5595 73.9482 61.1405 70.8808" stroke="black" stroke-width="2" stroke-linecap="round" stroke-linejoin="round"/>
<path d="M27.3716 50.236L32.4827 50.6551" stroke="black" stroke-width="2" stroke-linecap="round" stroke-linejoin="round"/>
<path d="M83.9503 50.236L78.8389 50.6551" stroke="black" stroke-width="2" stroke-linecap="round" stroke-linejoin="round"/>
</svg>