<svg width="24" height="24" viewBox="0 0 24 24" fill="none" xmlns="http://www.w3.org/2000/svg">
    <path d="M14.3012 1.5235C14.3998 1.52332 14.4974 1.54257 14.5885 1.58015C14.6796 1.61773 14.7624 1.6729 14.8322 1.7425L22.2572 9.1675C22.3978 9.30815 22.4768 9.49888 22.4768 9.69775C22.4768 9.89662 22.3978 10.0874 22.2572 10.228C21.5372 10.948 20.6492 11.11 20.0027 11.11C19.7372 11.11 19.5002 11.083 19.3127 11.0515L14.6117 15.7525C14.7355 16.2511 14.8158 16.7595 14.8517 17.272C14.9207 18.325 14.8037 19.8025 13.7717 20.8345C13.6311 20.9751 13.4403 21.0541 13.2415 21.0541C13.0426 21.0541 12.8519 20.9751 12.7112 20.8345L8.46771 16.5925L3.69471 21.3655C3.40221 21.658 1.86621 22.7185 1.57371 22.426C1.28121 22.1335 2.34171 20.596 2.63421 20.305L7.40721 15.532L3.16521 11.2885C3.02461 11.1479 2.94562 10.9571 2.94562 10.7583C2.94562 10.5594 3.02461 10.3686 3.16521 10.228C4.19721 9.196 5.67471 9.0775 6.72771 9.148C7.2402 9.18391 7.7486 9.26421 8.24721 9.388L12.9482 4.6885C12.909 4.46008 12.8889 4.22877 12.8882 3.997C12.8882 3.352 13.0502 2.464 13.7717 1.7425C13.9123 1.6023 14.1027 1.52354 14.3012 1.5235ZM14.4842 4.6885V4.6915C14.5275 4.82345 14.5334 4.96484 14.501 5.09992C14.4687 5.23499 14.3996 5.35843 14.3012 5.4565L8.99871 10.7575C8.90019 10.8556 8.77633 10.9244 8.64098 10.9562C8.50563 10.988 8.3641 10.9815 8.23221 10.9375H8.22921L8.20821 10.9315C8.06551 10.8888 7.92143 10.8507 7.77621 10.8175C7.39887 10.7295 7.01518 10.6713 6.62871 10.6435C5.99571 10.6015 5.37471 10.6555 4.86621 10.8685L13.1312 19.132C13.3427 18.622 13.3967 18.0025 13.3547 17.3695C13.3165 16.8336 13.2199 16.3035 13.0667 15.7885L13.0607 15.769C13.0164 15.6369 13.0098 15.4936 13.0416 15.3579C13.0734 15.2223 13.1423 15.0982 13.2407 14.9995L18.5447 9.697C18.6468 9.59424 18.7766 9.52326 18.9182 9.49265C19.0598 9.46204 19.2072 9.4731 19.3427 9.5245L19.4867 9.5575C19.6172 9.583 19.7987 9.6085 20.0027 9.6085C20.1737 9.6085 20.3477 9.592 20.5172 9.5485L14.4497 3.4825C14.4062 3.652 14.3897 3.8275 14.3897 3.997C14.3904 4.23007 14.4217 4.46205 14.4827 4.687L14.4842 4.6885Z" fill="white"/>
</svg>
