<svg xmlns="http://www.w3.org/2000/svg" width="110" height="75" viewBox="0 0 110 75" fill="none">
    <path
        d="M97.5332 15.4791C97.7898 14.6954 98.877 14.6954 99.1337 15.4791L100.639 20.0795C100.97 21.0908 101.528 22.0096 102.268 22.7632C103.009 23.5168 103.912 24.0844 104.906 24.421L109.423 25.9529C110.192 26.2142 110.192 27.3209 109.423 27.5822L104.903 29.1141C103.91 29.4512 103.007 30.0193 102.267 30.7733C101.527 31.5273 100.969 32.4465 100.639 33.458L99.1337 38.056C99.0783 38.2276 98.9712 38.377 98.8275 38.483C98.6838 38.5889 98.5109 38.646 98.3334 38.646C98.156 38.646 97.9831 38.5889 97.8394 38.483C97.6957 38.377 97.5885 38.2276 97.5332 38.056L96.0283 33.4556C95.6973 32.4445 95.1396 31.5259 94.3994 30.7723C93.6591 30.0187 92.7566 29.451 91.7635 29.1141L87.2443 27.5822C87.0757 27.5259 86.9289 27.4168 86.8248 27.2705C86.7207 27.1242 86.6647 26.9482 86.6647 26.7675C86.6647 26.5869 86.7207 26.4109 86.8248 26.2646C86.9289 26.1183 87.0757 26.0092 87.2443 25.9529L91.7635 24.421C92.7566 24.0841 93.6591 23.5164 94.3994 22.7628C95.1396 22.0092 95.6973 21.0905 96.0283 20.0795L97.5332 15.4791ZM88.5205 3.36895C88.5539 3.2661 88.6184 3.1766 88.7047 3.11316C88.7909 3.04972 88.8947 3.01558 89.0011 3.01558C89.1075 3.01558 89.2112 3.04972 89.2975 3.11316C89.3838 3.1766 89.4482 3.2661 89.4817 3.36895L90.3846 6.12871C90.7882 7.35897 91.7355 8.32322 92.944 8.7341L95.655 9.65323C95.7561 9.68728 95.844 9.75289 95.9063 9.84072C95.9686 9.92855 96.0022 10.0341 96.0022 10.1425C96.0022 10.2508 95.9686 10.3564 95.9063 10.4442C95.844 10.5321 95.7561 10.5977 95.655 10.6317L92.944 11.5509C92.348 11.753 91.8063 12.0937 91.3621 12.5459C90.9179 12.9982 90.5832 13.5495 90.3846 14.1562L89.4817 16.916C89.4482 17.0189 89.3838 17.1084 89.2975 17.1718C89.2112 17.2352 89.1075 17.2694 89.0011 17.2694C88.8947 17.2694 88.7909 17.2352 88.7047 17.1718C88.6184 17.1084 88.5539 17.0189 88.5205 16.916L87.6176 14.1562C87.419 13.5495 87.0843 12.9982 86.6401 12.5459C86.1958 12.0937 85.6542 11.753 85.0582 11.5509L82.3471 10.6317C82.2461 10.5977 82.1582 10.5321 82.0959 10.4442C82.0335 10.3564 82 10.2508 82 10.1425C82 10.0341 82.0335 9.92855 82.0959 9.84072C82.1582 9.75289 82.2461 9.68728 82.3471 9.65323L85.0582 8.7341C85.6542 8.53195 86.1958 8.19126 86.6401 7.73903C87.0843 7.2868 87.419 6.73547 87.6176 6.12871L88.5205 3.36895ZM105.013 0.877566C105.036 0.809941 105.079 0.751301 105.137 0.709799C105.194 0.668297 105.262 0.645996 105.333 0.645996C105.403 0.645996 105.472 0.668297 105.529 0.709799C105.586 0.751301 105.629 0.809941 105.652 0.877566L106.254 2.71582C106.523 3.53758 107.155 4.1812 107.962 4.45433L109.768 5.06708C109.834 5.09053 109.892 5.13446 109.933 5.19278C109.973 5.25109 109.995 5.32089 109.995 5.39246C109.995 5.46403 109.973 5.53383 109.933 5.59214C109.892 5.65046 109.834 5.69439 109.768 5.71784L107.962 6.33059C107.564 6.46531 107.203 6.69258 106.906 6.99436C106.61 7.29615 106.387 7.66413 106.254 8.0691L105.652 9.90735C105.629 9.97498 105.586 10.0336 105.529 10.0751C105.472 10.1166 105.403 10.1389 105.333 10.1389C105.262 10.1389 105.194 10.1166 105.137 10.0751C105.079 10.0336 105.036 9.97498 105.013 9.90735L104.411 8.0691C104.279 7.66413 104.055 7.29615 103.759 6.99436C103.463 6.69258 103.101 6.46531 102.703 6.33059L100.9 5.71784C100.833 5.69439 100.776 5.65046 100.735 5.59214C100.694 5.53383 100.672 5.46403 100.672 5.39246C100.672 5.32089 100.694 5.25109 100.735 5.19278C100.776 5.13446 100.833 5.09053 100.9 5.06708L102.706 4.45433C103.513 4.1812 104.145 3.53758 104.413 2.71582L105.013 0.879941V0.877566Z"
        fill="#F4D35E" />
    <path
        d="M12.5265 31.3103L3.09361 73.0282C2.91147 73.8338 3.43434 74.6218 4.15105 74.6218H78.6571C79.3776 74.6218 79.9008 73.8262 79.7122 73.0183L69.7563 30.3919C69.7191 30.2323 69.7103 30.0557 69.7273 29.8914C71.7647 10.3748 63.884 17.5234 59.3707 23.9542C59.1591 24.2553 58.8448 24.4327 58.5102 24.4327H22.9658C22.6183 24.4327 22.2826 24.2249 22.073 23.9029C13.2758 10.386 12.0541 22.7317 12.5598 30.8922C12.5685 31.0336 12.5575 31.1733 12.5265 31.3103Z"
        fill="white" />
    <path
        d="M2.7334 72.1324C3.82673 67.05 9.56673 42.066 12.8467 29.8894C11.1156 24.3834 11.7534 19.2171 14.7601 17.8182C17.7667 16.4192 21.1379 20.7784 22.6867 23.5313H41.0001"
        stroke="black" stroke-width="2" stroke-linecap="round" stroke-linejoin="round" />
    <path
        d="M79.2667 72.1324C78.1733 67.05 72.4333 42.066 69.1533 29.8894C70.8846 24.3834 70.2467 19.2171 67.24 17.8182C64.2333 16.4192 60.862 20.7784 59.3133 23.5313H41"
        stroke="black" stroke-width="2" stroke-linecap="round" stroke-linejoin="round" />
    <path d="M36.0801 53.6565L41.7124 59.442V68.6024C40.8289 69.4059 38.7637 70.4344 37.571 68.1202"
        stroke="black" stroke-width="2" stroke-linecap="round" stroke-linejoin="round" />
    <path
        d="M47.1787 53.6565L41.5464 59.442V68.6024C42.4299 69.4059 44.4951 70.4344 45.6878 68.1202"
        stroke="black" stroke-width="2" stroke-linecap="round" stroke-linejoin="round" />
    <path d="M20.2119 52.5453L24.0679 52.8615" stroke="black" stroke-width="2"
        stroke-linecap="round" stroke-linejoin="round" />
    <path d="M62.8962 52.5453L59.04 52.8615" stroke="black" stroke-width="2" stroke-linecap="round"
        stroke-linejoin="round" />
</svg>