<svg width="22" height="19" viewBox="0 0 22 19" fill="none" xmlns="http://www.w3.org/2000/svg">
<rect x="4" y="0.246094" width="4.44444" height="2" fill="black"/>
<rect x="13.5547" y="0.246094" width="4.44444" height="2" fill="black"/>
<rect x="20" y="8.69043" width="4.44444" height="2" transform="rotate(-90 20 8.69043)" fill="black"/>
<rect y="8.69043" width="4.44444" height="2" transform="rotate(-90 0 8.69043)" fill="black"/>
<rect x="8.44531" y="2.24609" width="1.55556" height="2" fill="black"/>
<rect x="6" y="12.6904" width="2" height="2" fill="black"/>
<rect x="2" y="8.69043" width="2" height="2" fill="black"/>
<rect x="2" y="2.24609" width="2" height="2" fill="black"/>
<rect x="10" y="4.24609" width="2" height="2" fill="black"/>
<rect x="8" y="14.6904" width="2" height="2" fill="black"/>
<rect x="4" y="10.6904" width="2" height="2" fill="black"/>
<rect x="14" y="12.6904" width="2" height="2" fill="black"/>
<rect x="10" y="16.6904" width="2" height="2" fill="black"/>
<rect x="12" y="2.24609" width="1.55556" height="2" fill="black"/>
<rect x="16" y="10.6904" width="2" height="2" fill="black"/>
<rect x="12" y="14.6904" width="2" height="2" fill="black"/>
<rect x="18" y="2.24609" width="2" height="2" fill="black"/>
<rect x="18" y="8.69043" width="2" height="2" fill="black"/>
</svg>
