<svg width="20" height="18" viewBox="0 0 20 18" fill="none" xmlns="http://www.w3.org/2000/svg">
<rect x="1.9043" y="1.30859" width="1.90476" height="2.125" fill="black"/>
<rect x="16.1914" y="1.30859" width="1.90476" height="2.125" fill="black"/>
<rect y="3.43359" width="1.90476" height="2.125" fill="black"/>
<rect x="18.0957" y="3.43359" width="1.90476" height="2.125" fill="black"/>
<rect y="4.49609" width="1.90476" height="2.125" fill="black"/>
<rect x="18.0957" y="4.49609" width="1.90476" height="2.125" fill="black"/>
<rect y="6.62109" width="1.90476" height="2.125" fill="black"/>
<rect x="18.0957" y="6.62109" width="1.90476" height="2.125" fill="black"/>
<rect y="8.74609" width="1.90476" height="2.125" fill="black"/>
<rect x="18.0957" y="8.74609" width="1.90476" height="2.125" fill="black"/>
<rect y="9.80859" width="1.90476" height="2.125" fill="black"/>
<rect x="18.0957" y="9.80859" width="1.90476" height="2.125" fill="black"/>
<rect x="16.1914" y="11.9336" width="1.90476" height="2.125" fill="black"/>
<rect x="5.71484" y="12.9961" width="1.90476" height="2.125" fill="black"/>
<rect x="5.71484" y="0.246094" width="1.90476" height="2.125" fill="black"/>
<rect x="11.4277" y="14.0586" width="1.90476" height="2.125" fill="black"/>
<rect x="13.334" y="15.1211" width="1.90476" height="2.125" fill="black"/>
<rect x="1.9043" y="11.9336" width="1.90476" height="2.125" fill="black"/>
<rect x="13.334" y="0.246094" width="1.90476" height="2.125" fill="black"/>
<rect x="14.2852" y="0.246094" width="1.90476" height="2.125" fill="black"/>
<rect x="14.2852" y="12.9961" width="1.90476" height="2.125" fill="black"/>
<rect x="7.61914" y="12.9961" width="1.90476" height="2.125" fill="black"/>
<rect x="8.57227" y="12.9961" width="1.90476" height="2.125" fill="black"/>
<rect x="9.52344" y="0.246094" width="1.90476" height="2.125" fill="black"/>
<rect x="7.61914" y="0.246094" width="1.90476" height="2.125" fill="black"/>
<rect x="3.80859" y="12.9961" width="1.90476" height="2.125" fill="black"/>
<rect x="3.80859" y="0.246094" width="1.90476" height="2.125" fill="black"/>
<rect x="9.52344" y="12.9961" width="1.90476" height="2.125" fill="black"/>
<rect x="11.4277" y="0.246094" width="1.90476" height="2.125" fill="black"/>
</svg>
