<svg xmlns="http://www.w3.org/2000/svg" width="88" height="80" viewBox="0 0 88 80" fill="none">
<path d="M13.5417 33.2031L3.43796 77.888C3.24286 78.7509 3.80292 79.5949 4.5706 79.5949H84.3757C85.1474 79.5949 85.7078 78.7428 85.5058 77.8774L74.8418 32.2194C74.802 32.0484 74.7926 31.8592 74.8108 31.6832C76.9931 10.7786 68.5518 18.4355 63.7176 25.3238C63.491 25.6463 63.1543 25.8362 62.7959 25.8362H24.7234C24.3513 25.8362 23.9917 25.6137 23.7673 25.2688C14.3443 10.7906 13.0357 24.0143 13.5774 32.7552C13.5868 32.9067 13.5749 33.0563 13.5417 33.2031Z" fill="white"/>
<path d="M3.05202 76.9286C4.22311 71.4847 10.3713 44.7238 13.8846 31.6812C12.0304 25.7836 12.7135 20.2498 15.934 18.7514C19.1545 17.253 22.7654 21.9222 24.4245 24.8709H44.0403" stroke="black" stroke-width="2" stroke-linecap="round" stroke-linejoin="round"/>
<path d="M85.0285 76.9286C83.8574 71.4847 77.7092 44.7238 74.1959 31.6812C76.0504 25.7836 75.367 20.2498 72.1465 18.7514C68.926 17.253 65.3149 21.9222 63.6561 24.8709H44.0403" stroke="black" stroke-width="2" stroke-linecap="round" stroke-linejoin="round"/>
<path d="M38.7704 57.1385L44.8032 63.3355V73.1474C43.8569 74.0081 41.6449 75.1097 40.3673 72.631" stroke="black" stroke-width="2" stroke-linecap="round" stroke-linejoin="round"/>
<path d="M50.6585 57.1385L44.6257 63.3355V73.1474C45.572 74.0081 47.784 75.1097 49.0616 72.631" stroke="black" stroke-width="2" stroke-linecap="round" stroke-linejoin="round"/>
<path d="M21.7736 55.9484L25.9038 56.287" stroke="black" stroke-width="2" stroke-linecap="round" stroke-linejoin="round"/>
<path d="M67.4938 55.9484L63.3633 56.287" stroke="black" stroke-width="2" stroke-linecap="round" stroke-linejoin="round"/>
<path d="M33.2556 18.7985H54.2657V21.0101H33.2556V18.7985ZM33.2556 3.31738L38.5082 6.63477L43.7607 0L49.0132 6.63477L54.2657 3.31738V16.5869H33.2556V3.31738Z" fill="#F4D35E"/>
</svg>