<svg width="12" height="7" viewBox="0 0 12 7" fill="none" xmlns="http://www.w3.org/2000/svg">
    <path d="M6.27498 0.224994C6.40831 0.224994 6.53764 0.249994 6.66298 0.299994C6.78831 0.349995 6.89231 0.416661 6.97498 0.499994L11.575 5.09999C11.7583 5.28333 11.85 5.51666 11.85 5.79999C11.85 6.08333 11.7583 6.31666 11.575 6.49999C11.3916 6.68333 11.1583 6.77499 10.875 6.77499C10.5916 6.77499 10.3583 6.68333 10.175 6.49999L6.27498 2.59999L2.37498 6.49999C2.19164 6.68333 1.95831 6.77499 1.67498 6.77499C1.39164 6.77499 1.15831 6.68333 0.974977 6.49999C0.791643 6.31666 0.699975 6.08333 0.699975 5.79999C0.699975 5.51666 0.791643 5.28333 0.974977 5.09999L5.57498 0.499994C5.67498 0.399994 5.78331 0.328994 5.89998 0.286994C6.01664 0.244994 6.14164 0.224327 6.27498 0.224994Z" fill="white"/>
</svg>
