<svg width="7" height="12" viewBox="0 0 7 12" fill="none" xmlns="http://www.w3.org/2000/svg">
    <path d="M-1.23978e-05 6.27498C-1.23978e-05 6.14165 0.0249884 6.01232 0.0749884 5.88698C0.124988 5.76165 0.191655 5.65765 0.274988 5.57498L4.87499 0.974981C5.05832 0.791648 5.29166 0.699982 5.57499 0.699982C5.85832 0.699982 6.09165 0.791648 6.27499 0.974981C6.45832 1.15831 6.54999 1.39165 6.54999 1.67498C6.54999 1.95831 6.45832 2.19165 6.27499 2.37498L2.37499 6.27498L6.27499 10.175C6.45832 10.3583 6.54999 10.5916 6.54999 10.875C6.54999 11.1583 6.45832 11.3916 6.27499 11.575C6.09165 11.7583 5.85832 11.85 5.57499 11.85C5.29166 11.85 5.05832 11.7583 4.87499 11.575L0.274988 6.97498C0.174988 6.87498 0.103988 6.76665 0.0619879 6.64998C0.0199879 6.53331 -0.000679064 6.40831 -1.23978e-05 6.27498Z" fill="white"/>
</svg>
