<svg width="10" height="17" viewBox="0 0 10 17" fill="none" xmlns="http://www.w3.org/2000/svg">
    <path d="M1.62125e-05 8.88889C1.62125e-05 8.69755 0.0373373 8.51196 0.111977 8.33211C0.186616 8.15226 0.286135 8.00303 0.410534 7.8844L7.27735 1.2835C7.55103 1.02042 7.89935 0.888885 8.3223 0.888885C8.74526 0.888885 9.09358 1.02042 9.36726 1.2835C9.64093 1.54658 9.77777 1.88141 9.77777 2.28799C9.77777 2.69457 9.64093 3.02939 9.36726 3.29247L3.54539 8.88889L9.36726 14.4853C9.64093 14.7484 9.77777 15.0832 9.77777 15.4898C9.77777 15.8964 9.64093 16.2312 9.36726 16.4943C9.09358 16.7573 8.74526 16.8889 8.3223 16.8889C7.89935 16.8889 7.55103 16.7573 7.27735 16.4943L0.410534 9.89337C0.261255 9.74987 0.155267 9.59442 0.0925694 9.427C0.0298729 9.25959 -0.00097847 9.08022 1.62125e-05 8.88889Z" fill="white"/>
</svg>
