<svg width="13" height="7" viewBox="0 0 13 7" fill="none" xmlns="http://www.w3.org/2000/svg">
    <path d="M6.49999 6.77501C6.36665 6.77501 6.23732 6.75001 6.11199 6.70001C5.98665 6.65001 5.88265 6.58334 5.79999 6.50001L1.19999 1.90001C1.01665 1.71667 0.924988 1.48334 0.924988 1.20001C0.924988 0.916672 1.01665 0.683339 1.19999 0.500006C1.38332 0.316672 1.61665 0.225006 1.89999 0.225006C2.18332 0.225006 2.41665 0.316672 2.59999 0.500006L6.49999 4.40001L10.4 0.500006C10.5833 0.316672 10.8167 0.225006 11.1 0.225006C11.3833 0.225006 11.6167 0.316672 11.8 0.500006C11.9833 0.683339 12.075 0.916672 12.075 1.20001C12.075 1.48334 11.9833 1.71667 11.8 1.90001L7.19999 6.50001C7.09999 6.60001 6.99165 6.67101 6.87499 6.71301C6.75832 6.75501 6.63332 6.77567 6.49999 6.77501Z" fill="white"/>
</svg>
