<svg width="7" height="12" viewBox="0 0 7 12" fill="none" xmlns="http://www.w3.org/2000/svg">
    <path d="M6.55 6.425C6.55 6.55833 6.525 6.68767 6.475 6.813C6.425 6.93833 6.35833 7.04233 6.275 7.125L1.675 11.725C1.49167 11.9083 1.25833 12 0.974999 12C0.691666 12 0.458333 11.9083 0.275 11.725C0.0916663 11.5417 0 11.3083 0 11.025C0 10.7417 0.0916663 10.5083 0.275 10.325L4.175 6.425L0.275 2.525C0.0916663 2.34167 0 2.10833 0 1.825C0 1.54167 0.0916663 1.30833 0.275 1.125C0.458333 0.941668 0.691666 0.849999 0.974999 0.849999C1.25833 0.849999 1.49167 0.941668 1.675 1.125L6.275 5.725C6.375 5.825 6.446 5.93333 6.488 6.05C6.53 6.16667 6.55067 6.29167 6.55 6.425Z" fill="white"/>
</svg>
