<svg width="22" height="16" viewBox="0 0 22 16" fill="none" xmlns="http://www.w3.org/2000/svg">
    <path d="M6.43469 7.70018C8.50724 7.69876 10.1835 6.02015 10.1821 3.94761C10.1807 1.87506 8.50209 0.198757 6.42955 0.200179C4.357 0.201601 2.6807 1.88021 2.68212 3.95275C2.68354 6.0253 4.36215 7.7016 6.43469 7.70018ZM9.00685 8.76984L8.72895 8.77003C8.03275 9.10533 7.25946 9.30675 6.43579 9.30732C5.61213 9.30788 4.84191 9.10752 4.1419 8.77318L3.864 8.77337C1.73454 8.77483 0.00804271 10.5037 0.00950372 12.6332L0.0101653 13.5974C0.0107741 14.4847 0.731134 15.2041 1.61841 15.2035L11.2613 15.1969C12.1485 15.1963 12.8679 14.4759 12.8673 13.5886L12.8666 12.6243C12.8652 10.4949 11.1363 8.76838 9.00685 8.76984ZM16.0775 7.69356C17.8521 7.69234 19.2908 6.25162 19.2896 4.47707C19.2884 2.70252 17.8477 1.26377 16.0731 1.26499C14.2986 1.26621 12.8598 2.70693 12.8611 4.48148C12.8623 6.25603 14.303 7.69478 16.0775 7.69356ZM17.6854 8.76389L17.5582 8.76397C17.0929 8.92501 16.6008 9.03249 16.0785 9.03285C15.5561 9.03321 15.0639 8.9264 14.5984 8.766L14.4711 8.76609C13.7881 8.76656 13.1588 8.96454 12.6065 9.283C13.4241 10.163 13.9372 11.3312 13.9381 12.6236L13.939 13.9093C13.939 13.983 13.9223 14.0533 13.919 14.1236L19.832 14.1196C20.7192 14.1189 21.4386 13.3986 21.438 12.5113C21.4366 10.4388 19.758 8.76247 17.6854 8.76389Z" fill="white"/>
</svg>
