<svg xmlns="http://www.w3.org/2000/svg" width="24" height="24" viewBox="0 0 24 24" fill="none">
    <path
        d="M23.5467 9.59999C23.6747 9.59999 23.7853 9.68933 23.8067 9.81466C23.932 10.516 24 11.2707 24 12C24.004 14.9532 22.915 17.8033 20.9427 20.0013C20.8969 20.0521 20.8331 20.083 20.7649 20.0875C20.6966 20.0919 20.6294 20.0696 20.5773 20.0253L17.3173 17.2653C17.2892 17.2412 17.2663 17.2116 17.25 17.1783C17.2336 17.1451 17.2242 17.1089 17.2222 17.0719C17.2202 17.0349 17.2257 16.9979 17.2384 16.9631C17.2511 16.9282 17.2707 16.8964 17.296 16.8693C17.9525 16.1548 18.4577 15.3148 18.7813 14.4H12.2667C12.1959 14.4 12.1281 14.3719 12.0781 14.3219C12.0281 14.2719 12 14.204 12 14.1333V9.86666C12 9.71999 12.12 9.59999 12.2667 9.59999H23.5467ZM15.2973 18.4C15.3451 18.375 15.3992 18.3647 15.4528 18.3704C15.5065 18.3761 15.5572 18.3975 15.5987 18.432L19.0227 21.3293C19.0532 21.3548 19.0775 21.3868 19.0938 21.4231C19.1101 21.4594 19.1179 21.4988 19.1166 21.5386C19.1153 21.5783 19.105 21.6172 19.0864 21.6523C19.0678 21.6875 19.0414 21.7179 19.0093 21.7413C16.9691 23.2136 14.516 24.0041 12 24C10 24.001 8.03152 23.5017 6.27378 22.5476C4.51603 21.5936 3.02485 20.2149 1.93601 18.5373C1.90034 18.4818 1.88685 18.415 1.89821 18.35C1.90957 18.285 1.94496 18.2267 1.99734 18.1867L5.39067 15.5707C5.42187 15.5473 5.45765 15.5309 5.49567 15.5224C5.53368 15.5139 5.57306 15.5135 5.61122 15.5213C5.64938 15.5292 5.68545 15.5449 5.71707 15.5677C5.74869 15.5904 5.77514 15.6196 5.79467 15.6533C6.72755 17.2388 8.23213 18.407 9.99939 18.9178C11.7666 19.4286 13.6624 19.2433 15.2973 18.4ZM4.90667 13.2347C4.9152 13.2835 4.91027 13.3338 4.89242 13.38C4.87457 13.4263 4.84447 13.4669 4.80534 13.4973L1.15867 16.3067C1.12649 16.3319 1.08883 16.3493 1.04872 16.3573C1.00861 16.3653 0.967171 16.3639 0.92774 16.353C0.888309 16.3421 0.851986 16.3221 0.821695 16.2946C0.791405 16.2671 0.767992 16.2329 0.753342 16.1947C0.253408 14.8527 -0.00174357 13.432 8.96703e-06 12C8.96703e-06 10.464 0.289342 8.99466 0.816008 7.644C0.830797 7.60677 0.853947 7.57344 0.883668 7.54658C0.913389 7.51972 0.948887 7.50006 0.987418 7.48911C1.02595 7.47815 1.06648 7.4762 1.10589 7.48341C1.14529 7.49061 1.18251 7.50678 1.21467 7.53066L4.85734 10.2027C4.944 10.2653 4.984 10.376 4.96134 10.48C4.76615 11.3861 4.74847 12.3213 4.90667 13.2347ZM5.52934 8.21466C5.65734 8.308 5.83734 8.27066 5.92267 8.13733C6.57253 7.11415 7.47035 6.27174 8.5328 5.6883C9.59526 5.10487 10.7879 4.79931 12 4.8C13.6761 4.79944 15.2992 5.38688 16.5867 6.46C16.6386 6.50403 16.7052 6.52707 16.7732 6.5246C16.8413 6.52213 16.906 6.49434 16.9547 6.44666L19.976 3.424C20.0013 3.39883 20.0212 3.36876 20.0345 3.33563C20.0478 3.3025 20.0542 3.26701 20.0534 3.23132C20.0525 3.19564 20.0443 3.1605 20.0294 3.12807C20.0145 3.09563 19.9932 3.06657 19.9667 3.04267C17.7763 1.08213 14.9396 -0.00128023 12 1.82563e-06C10.0262 -0.00108729 8.08271 0.485138 6.34196 1.41552C4.60122 2.3459 3.1171 3.69166 2.02134 5.33333C1.9845 5.38973 1.97074 5.45812 1.9829 5.52438C1.99506 5.59064 2.03221 5.64969 2.08667 5.68933L5.52934 8.21466Z"
        fill="white" />
</svg>