<svg width="42" height="44" viewBox="0 0 42 44" fill="none" xmlns="http://www.w3.org/2000/svg">
    <path d="M31.0042 29.2292L31.0049 30.3403L11.0049 30.354L11.0042 29.2429L13.2249 27.0191L13.2203 20.3525C13.2179 16.908 15.4714 13.8732 18.7707 12.8931L18.7705 12.5709C18.7701 11.9815 19.0038 11.4161 19.4203 10.9991C19.8368 10.5821 20.4018 10.3475 20.9912 10.3471C21.5806 10.3467 22.146 10.5805 22.563 10.9969C22.98 11.4134 23.2146 11.9785 23.215 12.5678L23.2152 12.8901C26.5158 13.8656 28.7735 16.8974 28.7758 20.3418L28.7804 27.0085L31.0042 29.2292ZM23.2279 31.4567C23.2283 32.0461 22.9946 32.6115 22.5781 33.0285C22.1617 33.4456 21.5966 33.6801 21.0072 33.6805C20.4178 33.6809 19.8525 33.4471 19.4354 33.0307C19.0184 32.6142 18.7839 32.0491 18.7835 31.4598" fill="white"/>
</svg>
