<svg width="55" height="55" viewBox="0 0 55 55" fill="none" xmlns="http://www.w3.org/2000/svg">
    <path d="M17.9537 11.45L37.54 31.2808L41.0293 27.7479L43.35 30.0976L39.2846 34.2137L44.5186 39.513C45.1605 40.1629 45.1605 41.2128 44.5186 41.8627L43.35 43.0459C43.1977 43.2004 43.0168 43.3229 42.8177 43.4066C42.6186 43.4902 42.4052 43.5332 42.1896 43.5332C41.9741 43.5332 41.7606 43.4902 41.5615 43.4066C41.3624 43.3229 41.1815 43.2004 41.0293 43.0459L35.7295 37.7632L31.7135 41.8794L29.3927 39.5297L32.8821 35.9968L13.2958 16.1661V11.45H17.9537ZM33.9025 24.0484L41.7041 16.1494V11.45H37.0462L29.2446 19.349L33.9025 24.0484ZM25.7553 32.3806L21.0974 27.5979L17.46 31.2808L13.9706 27.7479L11.6499 30.0976L15.7153 34.2137L10.4813 39.5297C10.3288 39.6839 10.2077 39.867 10.1251 40.0686C10.0425 40.2702 10 40.4863 10 40.7045C10 40.9228 10.0425 41.1389 10.1251 41.3405C10.2077 41.5421 10.3288 41.7252 10.4813 41.8794L11.6499 43.0626C12.2918 43.7125 13.3287 43.7125 13.9706 43.0626L19.2704 37.7632L23.2864 41.8794L25.6072 39.5297L22.1179 35.9968L25.7553 32.3806Z" fill="white"/>
</svg>
