<svg width="18" height="14" viewBox="0 0 18 14" fill="none" xmlns="http://www.w3.org/2000/svg">
    <path d="M16.787 13.8C16.5037 13.8 16.266 13.704 16.074 13.512C15.882 13.32 15.7863 13.0827 15.787 12.8V9.80001C15.787 8.96668 15.4953 8.25835 14.912 7.67501C14.3287 7.09168 13.6203 6.80001 12.787 6.80001H3.58701L6.51201 9.72501C6.69535 9.90835 6.78701 10.1333 6.78701 10.4C6.78701 10.6667 6.68701 10.9 6.48701 11.1C6.30368 11.2833 6.07035 11.375 5.78701 11.375C5.50368 11.375 5.27035 11.2833 5.08701 11.1L0.487013 6.50001C0.387013 6.40001 0.316013 6.29168 0.274013 6.17501C0.232013 6.05835 0.21168 5.93335 0.213013 5.80001C0.213013 5.66668 0.234013 5.54168 0.276013 5.42501C0.318013 5.30835 0.388346 5.20001 0.487013 5.10001L5.11201 0.475012C5.29535 0.291679 5.52035 0.200012 5.78701 0.200012C6.05368 0.200012 6.28701 0.300012 6.48701 0.500012C6.67035 0.683345 6.76201 0.916679 6.76201 1.20001C6.76201 1.48335 6.67035 1.71668 6.48701 1.90001L3.58701 4.80001H12.787C14.1703 4.80001 15.3497 5.28768 16.325 6.26301C17.3003 7.23835 17.7877 8.41735 17.787 9.80001V12.8C17.787 13.0833 17.691 13.321 17.499 13.513C17.307 13.705 17.0697 13.8007 16.787 13.8Z" fill="white"/>
</svg>
