<svg width="24" height="24" viewBox="0 0 24 24" fill="none" xmlns="http://www.w3.org/2000/svg">
    <path d="M5.43749 18.1815C2.12738 14.6224 2.18591 9.0439 5.6248 5.58C6.97256 4.21653 8.72501 3.32538 10.6207 3.03951L10.5197 0C7.8585 0.321335 5.38436 1.53395 3.50001 3.44049C-1.1081 8.07951 -1.16371 15.5707 3.32001 20.3151L0.77231 22.879L8.8354 23.3195L8.81345 14.7819L5.43749 18.1815ZM15.1644 0.680488L15.1864 9.21805L18.5623 5.82C21.8724 9.38195 21.8139 14.9605 18.375 18.4215C17.0275 19.7853 15.2749 20.6765 13.3791 20.9619L13.4801 24C16.1413 23.6783 18.6157 22.4663 20.5013 20.561C25.1079 15.919 25.1635 8.4278 20.6798 3.68634L23.2275 1.11951L15.1644 0.680488Z" fill="white"/>
</svg>
